<svg xmlns="http://www.w3.org/2000/svg" viewBox="0 0 290.49 290.49"><defs><style>.cls-1{fill:red;}.cls-2{fill:#fff;}</style></defs><title>createbutton</title><g id="Layer_2" data-name="Layer 2"><g id="Layer_1-2" data-name="Layer 1"><g id="newprojectbutton"><circle id="Ellipse_3" data-name="Ellipse 3" class="cls-1" cx="145.25" cy="145.25" r="145.25"/><g id="Groupe_18" data-name="Groupe 18"><path id="Rectangle_25" data-name="Rectangle 25" class="cls-2" d="M87.55,96.78h0a27.73,27.73,0,0,1,39.2,0h0l23,23h0l-19.6,19.6h0L87.55,96.78Z"/><path id="Rectangle_26" data-name="Rectangle 26" class="cls-2" d="M96.08,121.76h0a7.1,7.1,0,0,1,10,0l54.08,54.08h0a7.08,7.08,0,0,1-10,0h0L96.08,121.76Z"/><g id="Groupe_17" data-name="Groupe 17"><rect id="Rectangle_27" data-name="Rectangle 27" class="cls-2" x="154.67" y="122.98" width="27.72" height="70.34" transform="translate(-62.47 165.49) rotate(-45)"/><path id="Rectangle_28" data-name="Rectangle 28" class="cls-2" d="M203.33,199.74l6-6h0l.89.89a4.34,4.34,0,0,1,0,6.13h0a4.13,4.13,0,0,1-5.84,0h0l-1-1Z"/><path id="Rectangle_29" data-name="Rectangle 29" class="cls-2" d="M187.79,197l19.59-19.59h0a8.09,8.09,0,0,1,0,11.44L199.24,197a8.1,8.1,0,0,1-11.45,0Z"/></g></g></g></g></g></svg>