<?xml version="1.0" encoding="utf-8"?>
<!-- Generator: Adobe Illustrator 23.0.3, SVG Export Plug-In . SVG Version: 6.00 Build 0)  -->
<svg version="1.1" id="Layer_1" xmlns="http://www.w3.org/2000/svg" xmlns:xlink="http://www.w3.org/1999/xlink" x="0px" y="0px"
	 viewBox="0 0 1200 1200" style="enable-background:new 0 0 1200 1200;" xml:space="preserve">
<style type="text/css">
	.st0{fill:#E9E9E9;}
	.st1{fill:#FFFFFF;}
</style>
<g>
	<g>
		<path class="st0" d="M1198,600C1198,268.6,929.4,0,598,0S-2,268.7-2,600c0,167.6,68.7,319.2,179.5,428c0,0,174.4-166.8,419-166.8
			s413.4,175,413.4,175C1125.7,926.9,1198,771.8,1198,600z"/>
		<path class="st1" d="M596.5,861.2c-244.6,0-419,166.8-419,166.8c108.3,106.3,256.7,172,420.5,172c159.6,0,304.5-62.2,411.9-163.8
			C1009.9,1036.2,841.1,861.2,596.5,861.2z"/>
	</g>
	<circle class="st1" cx="598.6" cy="602.4" r="212.4"/>
</g>
</svg>
