<?xml version="1.0" encoding="utf-8"?>
<!-- Generator: Adobe Illustrator 23.0.3, SVG Export Plug-In . SVG Version: 6.00 Build 0)  -->
<svg version="1.1" id="Layer_1" xmlns="http://www.w3.org/2000/svg" xmlns:xlink="http://www.w3.org/1999/xlink" x="0px" y="0px"
	 viewBox="0 0 1200 1200" style="enable-background:new 0 0 1200 1200;" xml:space="preserve">
<style type="text/css">
	.st0{fill:#E9E9E9;}
	.st1{fill:#FFFFFF;}
</style>
<g>
	<path class="st0" d="M998.4,597c0-219.5-177.9-397.4-397.4-397.4S203.6,377.6,203.6,597c0,111,45.5,211.4,118.9,283.5
		c0,0,115.5-110.5,277.5-110.5c162,0,273.8,115.9,273.8,115.9C950.5,813.5,998.4,710.8,998.4,597z"/>
	<path class="st1" d="M600,770c-162,0-277.5,110.5-277.5,110.5c71.7,70.4,170,113.9,278.5,113.9c105.7,0,201.7-41.2,272.8-108.5
		C873.8,885.9,762,770,600,770z"/>
</g>
<circle class="st1" cx="601.4" cy="598.6" r="140.7"/>
</svg>
