<svg xmlns="http://www.w3.org/2000/svg" viewBox="0 0 1200 1200"><defs><style>.cls-1{fill:#e9e9e9;}.cls-2{fill:#fff;}</style></defs><title>defaultusericon_1</title><g id="Layer_2" data-name="Layer 2"><g id="Layer_1-2" data-name="Layer 1"><path class="cls-1" d="M1200,600C1200,268.6,931.4,0,600,0S0,268.75,0,600c0,167.59,68.7,319.17,179.52,428,0,0,174.38-166.83,419-166.83s413.39,175,413.39,175C1127.68,926.87,1200,771.82,1200,600Z"/><path class="cls-2" d="M598.49,861.2c-244.59,0-419,166.83-419,166.83C287.77,1134.32,436.19,1200,600,1200a597,597,0,0,0,411.88-163.81S843.08,861.2,598.49,861.2Z"/><circle class="cls-2" cx="600.6" cy="602.42" r="212.43"/></g></g></svg>