<svg xmlns="http://www.w3.org/2000/svg" viewBox="0 0 668.49 593.97">
  <defs>
    <style>
      .cls-1 {
        fill: red;
      }
    </style>
  </defs>
  <title>erasmixlogo</title>
  <g id="Layer_2" data-name="Layer 2">
    <g id="Layer_2-2" data-name="Layer 2">
      <path d="M589.49-47.12h0a0,0,0,0,1,0,0V227.07a0,0,0,0,1,0,0h-126a0,0,0,0,1,0,0V78.91a126,126,0,0,1,126-126Z" transform="translate(222.16 -348.96) rotate(45.57)"/>
      <rect x="28.54" y="295.95" width="447.13" height="126.03" transform="translate(-179.21 279.12) rotate(-44.43)"/>
      <path class="cls-1" d="M356.93,471.17s40.91-20.6,57.82-50.5c12.33-21.81,23.11-43.7,23.11-43.7l132,1.31s-10.36,35.9-16.56,55.84-18.38,38.81-18.38,38.81Z"/>
      <path d="M4.45,565H42.93a0,0,0,0,1,0,0v10a15.42,15.42,0,0,1-15.42,15.42H20.65A16.21,16.21,0,0,1,4.45,574.22V565a0,0,0,0,1,0,0Z" transform="translate(419.64 156.37) rotate(45.57)"/>
      <path d="M.37,524h126a0,0,0,0,1,0,0v0a36.8,36.8,0,0,1-36.8,36.8H37.17A36.8,36.8,0,0,1,.37,524v0A0,0,0,0,1,.37,524Z" transform="translate(406.33 117.43) rotate(45.57)"/>
      <path class="cls-1" d="M304.66,396.65,519.77,184.77S447.16,46,285.19,41.44,6.77,182.68.55,305.63C-3.63,388.34,17,433.27,31,453.83l99.49-92a119.15,119.15,0,0,1-4.09-35c2.86-87,71.59-160.29,141.59-159.6S339.75,186,339.75,186L216.57,304.77Z"/>
      <path d="M358-58.83h0a0,0,0,0,1,0,0V289a32.23,32.23,0,0,1-32.23,32.23h0a0,0,0,0,1,0,0V-26.6A32.23,32.23,0,0,1,358-58.83Z" transform="translate(196.21 -204.78) rotate(45.57)"/></g>
  </g>
</svg>
