<svg xmlns="http://www.w3.org/2000/svg" viewBox="0 0 289.6 289.6"><defs><style>.cls-1{fill:red;}.cls-2{fill:#fff;fill-rule:evenodd;}</style></defs><title>microicon</title><g id="Layer_2" data-name="Layer 2"><g id="Layer_1-2" data-name="Layer 1"><g id="Groupe_21" data-name="Groupe 21"><circle id="Ellipse_3" data-name="Ellipse 3" class="cls-1" cx="144.8" cy="144.8" r="144.8"/></g><g id="voice-recorder"><path id="Tracé_14" data-name="Tracé 14" class="cls-2" d="M144.25,159.69a19.9,19.9,0,0,0,19.89-19.9V115.31a19.9,19.9,0,1,0-39.79,0v24.48a19.9,19.9,0,0,0,19.89,19.9Zm35.19-29.08a4.59,4.59,0,1,0-9.18-.33,5,5,0,0,0,.06.94,7.11,7.11,0,0,0-.06.92v9.17a25.07,25.07,0,0,1-25.57,24.47,25.88,25.88,0,0,1-26.45-24.47v-9.17a4.4,4.4,0,0,0-.07-.73,4.59,4.59,0,0,0-9-1.7,4.85,4.85,0,0,0,0,1.7,4.4,4.4,0,0,0-.07.73v10.41c0,17.23,13.57,30,30.59,32.44v9.18h-15.3a6.53,6.53,0,0,0-.76.08,4.59,4.59,0,0,0-1.67,9,4.69,4.69,0,0,0,1.67,0,6.53,6.53,0,0,0,.76.08h39.79a6.48,6.48,0,0,0,.77-.08,4.59,4.59,0,1,0,1.67-9,4.69,4.69,0,0,0-1.67,0,6.48,6.48,0,0,0-.77-.08H148.86V175c17-2.39,30.59-15.22,30.59-32.44V132.14a3.82,3.82,0,0,0-.08-.75,5.18,5.18,0,0,0,.09-.78Z"/></g></g></g></svg>