<svg xmlns="http://www.w3.org/2000/svg" viewBox="0 0 289.6 289.6"><defs><style>.cls-1{fill:red;}.cls-2{fill:#fff;}</style></defs><title>photoicon</title><g id="Layer_2" data-name="Layer 2"><g id="Layer_1-2" data-name="Layer 1"><g id="Groupe_21" data-name="Groupe 21"><circle id="Ellipse_3" data-name="Ellipse 3" class="cls-1" cx="144.8" cy="144.8" r="144.8"/></g><g id="camera"><path id="Tracé_13" data-name="Tracé 13" class="cls-2" d="M121.11,152.05a24.12,24.12,0,1,0,24.12-24.12h0A24.12,24.12,0,0,0,121.11,152.05Zm76.07-40.82h-26c-1.87-7.42-3.72-14.84-11.14-14.84H130.38c-7.42,0-9.27,7.42-11.13,14.84h-26a7.45,7.45,0,0,0-7.43,7.42v66.79a7.44,7.44,0,0,0,7.42,7.42H197.17a7.44,7.44,0,0,0,7.42-7.42V118.65a7.44,7.44,0,0,0-7.42-7.42Zm-52,73.75a33,33,0,1,1,33-33h0A33,33,0,0,1,145.23,185Zm51.93-51.49H182.33v-7.42h14.84Z"/></g></g></g></svg>