<?xml version="1.0" encoding="utf-8"?>
<!-- Generator: Adobe Illustrator 23.0.3, SVG Export Plug-In . SVG Version: 6.00 Build 0)  -->
<svg version="1.1" id="Laag_1" xmlns="http://www.w3.org/2000/svg" xmlns:xlink="http://www.w3.org/1999/xlink" x="0px" y="0px"
	 viewBox="0 0 329 334" style="enable-background:new 0 0 329 334;" xml:space="preserve">
<style type="text/css">
	.st0{fill:#E52421;}
	.st1{fill:#FDFDFD;}
</style>
<circle class="st0" cx="164.5" cy="164.5" r="164.5"/>
<g>
	<g>
		<g>
			<path class="st1" d="M194.41,214.96c-1.13,1.6-2.79,2.76-4.67,3.28l-9.39,2.56c-0.74,0.21-1.5,0.32-2.27,0.32
				c-1.73,0-3.4-0.53-4.81-1.52c-2.07-1.44-3.37-3.71-3.57-6.17l-0.82-9.7c-0.2-1.99,0.34-3.98,1.47-5.58l0.35-0.5h-33.49
				c-2.7,0-4.89-2.23-4.89-4.92c0-2.71,2.19-4.93,4.89-4.93h40.54l9.06-12.94h-49.6c-2.7,0-4.89-2.23-4.89-4.93s2.19-4.93,4.89-4.93
				l56.58-0.14l21.22-30.42V111.9c0-3.7-2.86-6.69-6.56-6.69h-16.24v12.85c0,6.07-4.96,10.87-11.02,10.87H148.5
				c-6.07,0-10.86-4.8-10.86-10.87v-12.85h-16.42c-3.7,0-6.69,2.99-6.69,6.69v114.95c0,3.7,3,6.86,6.69,6.86h87.2
				c3.7,0,6.56-3.16,6.56-6.86v-41.1L194.41,214.96z M137.19,142.19h55.28c2.7,0,4.89,2.22,4.89,4.93s-2.19,4.93-4.89,4.93h-55.28
				c-2.7,0-4.89-2.23-4.89-4.93S134.49,142.19,137.19,142.19z"/>
			<path class="st1" d="M148.59,122.46h32.64c2.47,0,4.48-2.01,4.48-4.48V99.21c0-2.48-2.01-4.48-4.48-4.48h-4.92
				c-0.03-6.31-5.16-11.43-11.49-11.43c-6.33,0-11.45,5.11-11.49,11.43h-4.75c-2.48,0-4.48,2.01-4.48,4.48v18.77
				C144.11,120.45,146.12,122.46,148.59,122.46z M164.83,89.66c2.81,0,5.09,2.26,5.12,5.07H159.7
				C159.73,91.93,162.02,89.66,164.83,89.66z"/>
			<path class="st1" d="M256.27,113.52c-0.15-0.83-0.63-1.57-1.32-2.05l-8.17-5.69c-0.55-0.39-1.19-0.57-1.81-0.57
				c-1,0-1.99,0.47-2.6,1.36l-57.89,83.01l13.37,9.33l57.89-83C256.23,115.2,256.42,114.34,256.27,113.52z"/>
			<path class="st1" d="M175.37,203.12l0.84,9.75c0.04,0.56,0.34,1.06,0.79,1.39c0.32,0.22,0.7,0.35,1.08,0.35
				c0.16,0,0.33-0.02,0.49-0.07l9.44-2.58c0.43-0.12,0.8-0.38,1.05-0.74l3.54-5.08l-13.38-9.33l-3.54,5.08
				C175.44,202.23,175.32,202.68,175.37,203.12z"/>
		</g>
	</g>
</g>
</svg>
